<svg width="187" height="40" viewBox="0 0 187 40" fill="none" xmlns="http://www.w3.org/2000/svg">
<path d="M30.0074 35H6.00732C5.1789 35 4.50732 34.3284 4.50732 33.5V6.5C4.50732 5.67158 5.1789 5 6.00732 5H30.0074C30.8358 5 31.5074 5.67158 31.5074 6.5V33.5C31.5074 34.3284 30.8358 35 30.0074 35ZM13.5073 11H10.5073V14C10.5073 18.1421 13.8652 21.5 18.0074 21.5C22.1495 21.5 25.5074 18.1421 25.5074 14V11H22.5074V14C22.5074 16.4853 20.4926 18.5 18.0074 18.5C15.522 18.5 13.5073 16.4853 13.5073 14V11Z" fill="#0094F7"/>
<path d="M50.24 32.32C48.768 32.32 47.4347 32.1493 46.24 31.808C45.0667 31.4453 44.0213 30.9333 43.104 30.272C42.1867 29.5893 41.3653 28.7893 40.64 27.872L43.936 24.128C45.0027 25.5573 46.0693 26.5173 47.136 27.008C48.224 27.4987 49.344 27.744 50.496 27.744C51.072 27.744 51.5947 27.6693 52.064 27.52C52.5333 27.3707 52.896 27.1573 53.152 26.88C53.408 26.5813 53.536 26.2187 53.536 25.792C53.536 25.472 53.4507 25.184 53.28 24.928C53.1307 24.672 52.9173 24.448 52.64 24.256C52.3627 24.064 52.032 23.8933 51.648 23.744C51.264 23.5733 50.8587 23.4347 50.432 23.328C50.0053 23.2 49.568 23.0933 49.12 23.008C47.8827 22.7307 46.8053 22.3893 45.888 21.984C44.9707 21.5787 44.2027 21.088 43.584 20.512C42.9867 19.9147 42.5387 19.2427 42.24 18.496C41.9413 17.728 41.792 16.8747 41.792 15.936C41.792 14.9333 42.016 14.016 42.464 13.184C42.9333 12.3307 43.552 11.6053 44.32 11.008C45.1093 10.3893 46.016 9.92 47.04 9.6C48.064 9.25867 49.1307 9.088 50.24 9.088C51.712 9.088 52.9707 9.248 54.016 9.568C55.0827 9.86667 55.9893 10.304 56.736 10.88C57.504 11.456 58.1547 12.1493 58.688 12.96L55.328 16.192C54.88 15.6373 54.3893 15.1787 53.856 14.816C53.344 14.4533 52.7893 14.176 52.192 13.984C51.616 13.792 51.0187 13.696 50.4 13.696C49.76 13.696 49.2053 13.7813 48.736 13.952C48.288 14.1013 47.936 14.3253 47.68 14.624C47.424 14.9013 47.296 15.2427 47.296 15.648C47.296 16.0107 47.4027 16.32 47.616 16.576C47.8293 16.832 48.1173 17.0667 48.48 17.28C48.8427 17.472 49.2587 17.6427 49.728 17.792C50.1973 17.92 50.688 18.0267 51.2 18.112C52.3733 18.3467 53.4293 18.656 54.368 19.04C55.328 19.424 56.1493 19.8933 56.832 20.448C57.536 21.0027 58.0693 21.664 58.432 22.432C58.816 23.1787 59.008 24.0533 59.008 25.056C59.008 26.6133 58.624 27.936 57.856 29.024C57.1093 30.0907 56.0747 30.912 54.752 31.488C53.4507 32.0427 51.9467 32.32 50.24 32.32ZM59.3532 32V8.32H64.3772V18.464L63.3532 18.848C63.5879 18.08 64.0039 17.3867 64.6012 16.768C65.2199 16.128 65.9559 15.616 66.8092 15.232C67.6626 14.848 68.5586 14.656 69.4972 14.656C70.7772 14.656 71.8546 14.9227 72.7292 15.456C73.6039 15.968 74.2652 16.7467 74.7132 17.792C75.1612 18.816 75.3853 20.0747 75.3853 21.568V32H70.2332V21.984C70.2332 21.3013 70.1372 20.736 69.9452 20.288C69.7532 19.84 69.4546 19.5093 69.0492 19.296C68.6652 19.0613 68.1852 18.9547 67.6093 18.976C67.1613 18.976 66.7453 19.0507 66.3612 19.2C65.9772 19.328 65.6466 19.5307 65.3692 19.808C65.0919 20.064 64.8679 20.3627 64.6972 20.704C64.5479 21.0453 64.4732 21.4187 64.4732 21.824V32H61.9452C61.3479 32 60.8359 32 60.4092 32C59.9826 32 59.6306 32 59.3532 32ZM84.4657 32.32C82.6951 32.32 81.1164 31.936 79.7297 31.168C78.3644 30.4 77.2764 29.3547 76.4657 28.032C75.6764 26.7093 75.2817 25.1947 75.2817 23.488C75.2817 21.7813 75.6764 20.2667 76.4657 18.944C77.2764 17.6213 78.3644 16.576 79.7297 15.808C81.1164 15.04 82.6951 14.656 84.4657 14.656C86.2364 14.656 87.8044 15.04 89.1697 15.808C90.5564 16.576 91.6444 17.6213 92.4338 18.944C93.2231 20.2667 93.6178 21.7813 93.6178 23.488C93.6178 25.1947 93.2231 26.7093 92.4338 28.032C91.6444 29.3547 90.5564 30.4 89.1697 31.168C87.8044 31.936 86.2364 32.32 84.4657 32.32ZM84.4657 27.904C85.2337 27.904 85.9164 27.712 86.5137 27.328C87.1111 26.944 87.5804 26.4213 87.9217 25.76C88.2631 25.0987 88.4231 24.3413 88.4017 23.488C88.4231 22.6347 88.2631 21.8773 87.9217 21.216C87.5804 20.5333 87.1111 20 86.5137 19.616C85.9164 19.232 85.2337 19.04 84.4657 19.04C83.6977 19.04 83.0044 19.232 82.3857 19.616C81.7884 20 81.3191 20.5333 80.9777 21.216C80.6364 21.8773 80.4764 22.6347 80.4977 23.488C80.4764 24.3413 80.6364 25.0987 80.9777 25.76C81.3191 26.4213 81.7884 26.944 82.3857 27.328C83.0044 27.712 83.6977 27.904 84.4657 27.904ZM93.7658 39.04V15.008H98.6298L98.8218 18.816L97.8618 18.528C98.0111 17.824 98.3738 17.184 98.9498 16.608C99.5258 16.032 100.251 15.5733 101.126 15.232C102.022 14.8693 102.96 14.688 103.942 14.688C105.392 14.688 106.683 15.072 107.814 15.84C108.944 16.5867 109.83 17.6213 110.47 18.944C111.131 20.2453 111.462 21.76 111.462 23.488C111.462 25.1947 111.131 26.7093 110.47 28.032C109.83 29.3547 108.934 30.4 107.782 31.168C106.651 31.9147 105.35 32.288 103.878 32.288C102.918 32.288 102 32.1067 101.126 31.744C100.251 31.3813 99.5151 30.8907 98.9178 30.272C98.3204 29.6533 97.9258 28.9813 97.7338 28.256L98.9178 27.808V39.04H93.7658ZM102.63 27.968C103.398 27.968 104.07 27.7867 104.646 27.424C105.222 27.04 105.67 26.5173 105.99 25.856C106.31 25.1947 106.47 24.4053 106.47 23.488C106.47 22.592 106.31 21.8133 105.99 21.152C105.67 20.4693 105.222 19.9467 104.646 19.584C104.091 19.2 103.419 19.008 102.63 19.008C101.84 19.008 101.158 19.1893 100.582 19.552C100.006 19.9147 99.5578 20.4373 99.2378 21.12C98.9178 21.8027 98.7578 22.592 98.7578 23.488C98.7578 24.4053 98.9178 25.1947 99.2378 25.856C99.5578 26.5173 100.006 27.04 100.582 27.424C101.158 27.7867 101.84 27.968 102.63 27.968ZM126.678 32.32C125.206 32.32 123.872 32.1493 122.678 31.808C121.504 31.4453 120.459 30.9333 119.542 30.272C118.624 29.5893 117.803 28.7893 117.078 27.872L120.374 24.128C121.44 25.5573 122.507 26.5173 123.574 27.008C124.662 27.4987 125.782 27.744 126.934 27.744C127.51 27.744 128.032 27.6693 128.502 27.52C128.971 27.3707 129.334 27.1573 129.59 26.88C129.846 26.5813 129.974 26.2187 129.974 25.792C129.974 25.472 129.888 25.184 129.718 24.928C129.568 24.672 129.355 24.448 129.078 24.256C128.8 24.064 128.47 23.8933 128.086 23.744C127.702 23.5733 127.296 23.4347 126.87 23.328C126.443 23.2 126.006 23.0933 125.558 23.008C124.32 22.7307 123.243 22.3893 122.326 21.984C121.408 21.5787 120.64 21.088 120.022 20.512C119.424 19.9147 118.976 19.2427 118.678 18.496C118.379 17.728 118.23 16.8747 118.23 15.936C118.23 14.9333 118.454 14.016 118.902 13.184C119.371 12.3307 119.99 11.6053 120.758 11.008C121.547 10.3893 122.454 9.92 123.478 9.6C124.502 9.25867 125.568 9.088 126.678 9.088C128.15 9.088 129.408 9.248 130.454 9.568C131.52 9.86667 132.427 10.304 133.174 10.88C133.942 11.456 134.592 12.1493 135.126 12.96L131.766 16.192C131.318 15.6373 130.827 15.1787 130.294 14.816C129.782 14.4533 129.227 14.176 128.63 13.984C128.054 13.792 127.456 13.696 126.838 13.696C126.198 13.696 125.643 13.7813 125.174 13.952C124.726 14.1013 124.374 14.3253 124.118 14.624C123.862 14.9013 123.734 15.2427 123.734 15.648C123.734 16.0107 123.84 16.32 124.054 16.576C124.267 16.832 124.555 17.0667 124.918 17.28C125.28 17.472 125.696 17.6427 126.166 17.792C126.635 17.92 127.126 18.0267 127.638 18.112C128.811 18.3467 129.867 18.656 130.806 19.04C131.766 19.424 132.587 19.8933 133.27 20.448C133.974 21.0027 134.507 21.664 134.87 22.432C135.254 23.1787 135.446 24.0533 135.446 25.056C135.446 26.6133 135.062 27.936 134.294 29.024C133.547 30.0907 132.512 30.912 131.19 31.488C129.888 32.0427 128.384 32.32 126.678 32.32ZM139.503 32L133.903 15.008H139.311L142.447 26.048L141.775 25.92L145.295 17.344H148.303L152.015 25.952L151.279 26.016L154.415 15.008H159.823L154.031 32H150.255L146.575 22.88L146.959 22.944L143.279 32H139.503ZM159.566 32V15.008H164.686V32H159.566ZM162.126 11.648C161.166 11.648 160.409 11.424 159.854 10.976C159.321 10.5067 159.054 9.84533 159.054 8.992C159.054 8.224 159.332 7.59466 159.886 7.104C160.441 6.61333 161.188 6.368 162.126 6.368C163.086 6.368 163.833 6.60266 164.366 7.072C164.9 7.52 165.166 8.16 165.166 8.992C165.166 9.78133 164.889 10.4213 164.334 10.912C163.801 11.4027 163.065 11.648 162.126 11.648ZM167.353 32V14.176C167.353 13.0667 167.588 12.064 168.057 11.168C168.548 10.272 169.22 9.568 170.073 9.056C170.948 8.52267 171.961 8.256 173.113 8.256C173.924 8.256 174.67 8.37333 175.353 8.608C176.036 8.84267 176.644 9.17333 177.177 9.6L175.705 13.344C175.428 13.1947 175.161 13.0773 174.905 12.992C174.649 12.9067 174.414 12.864 174.201 12.864C173.817 12.864 173.497 12.928 173.241 13.056C172.985 13.184 172.793 13.3867 172.665 13.664C172.558 13.92 172.505 14.24 172.505 14.624V32H169.945C169.369 32 168.857 32 168.409 32C167.982 32 167.63 32 167.353 32ZM164.889 19.712V15.488H175.993V19.712H164.889ZM177.161 32V10.72H182.281V32H177.161ZM174.153 19.488V15.008H185.577V19.488H174.153Z" fill="black"/>
</svg>
